<?xml version="1.0" standalone="no"?><!DOCTYPE svg PUBLIC "-//W3C//DTD SVG 1.1//EN" "http://www.w3.org/Graphics/SVG/1.1/DTD/svg11.dtd"><svg t="1742959014031" class="icon" viewBox="0 0 1024 1024" version="1.1" xmlns="http://www.w3.org/2000/svg" p-id="10335" xmlns:xlink="http://www.w3.org/1999/xlink" width="200" height="200"><path d="M904.308311 540.223077c75.232068 48.663835 138.581711 147.513997 112.802178 273.553369-10.492715 51.333437-36.309187 95.878058-69.084196 129.743271-70.851285 73.146504-191.380734 101.388979-296.1162 56.391106-39.393107-16.922124-79.575913-49.039217-108.590117-90.23735-27.585558-39.206414-47.930044-84.389982-47.930044-150.879453 0-77.394506 33.959058-140.950808 73.314228-181.904344 20.270608-21.098244 43.342601-38.17112 74.743872-53.590719 29.897749-14.665841 62.277409-23.974506 102.930441-26.79486 65.887462-4.548507 116.44917 16.90615 157.929838 43.71898z m12.69309 322.913058c78.203174-119.872531-4.494596-282.20312-139.597038-291.886169-54.56711-3.911556-88.395384 10.604531-121.264239 29.615214 1.204017 7.070353 8.066712 12.296743 12.674122 16.923122 82.302421 82.302421 165.262759 165.526324 248.187155 245.347833z m-156.521159 84.615611c43.078037-0.094844 71.585076-14.234551 102.930441-31.025891-84.954053-89.428682-173.556097-175.210372-260.860279-262.289923-23.805784 32.811948-34.748758 82.396267-31.02589 124.103561 8.498999 95.388864 92.870013 169.379976 188.955728 169.212253z" p-id="10336"></path><path d="M969.161477 125.663991c13.011566 35.708177 11.282414 86.797017 11.282414 141.007714 0 48.550022 11.1696 115.509718-32.417598 119.852564-18.70918 1.861933-35.538457-10.153274-40.897628-25.384184-6.204779-17.56207-2.820354-44.244116-2.820354-63.442489v-66.282811c0-23.203776 3.10189-47.065468 0-63.44249-8.29234-43.736951-43.153912-77.732949-84.615611-87.435964-21.850006-5.114575-50.054544-2.820354-77.545257-2.820354H244.382423c-43.097005 0-78.767245-2.218346-107.160472 12.692092-28.35529 14.892467-51.784694 42.589841-57.820751 78.973904-4.249001 25.666719-1.410676 56.466981-1.410676 86.007318v521.739526c0 30.066471-2.519849 59.512963 2.820354 83.186964 9.43945 41.799143 42.176522 76.454055 87.435965 84.615611 34.842603 6.279655 82.622893 1.409678 125.49427 1.409677 48.663835 0 88.244632-3.47827 91.648026 33.828274 1.504522 16.490834-7.558549 33.827276-21.153154 39.486952-11.244477 4.701256-28.882421 2.820354-47.930043 2.820354-71.095882 0-139.050938 7.672361-190.366405-11.282414C57.043032 985.753145 4.751173 925.638174 1.854944 833.519922c-4.174124-133.146664 0-267.535283 0-401.866994V231.414785c0-36.422001-0.713824-67.503799 7.051384-94.46838C29.345658 65.944368 91.77282 9.739955 178.118581 2.990074 221.874501-0.432288 280.635702 1.579398 331.818388 1.579398c148.43448 0 309.015951-3.554145 456.868389 0 94.260722 2.256283 154.920795 53.910192 180.4747 124.084593z" p-id="10337"></path><path d="M653.319771 246.927231c34.580035 11.489074 32.718103 62.484068-2.819356 71.923518-15.100125 3.986433-37.644987 1.410676-59.231427 1.410677H350.152186c-52.668238 0-121.019641 10.850126-122.692885-36.666599-0.732793-21.097246 13.106409-34.542098 32.436566-38.077274 30.724387-5.621739 78.917996-1.410676 114.211856-1.410676h225.622327c8.554907 0 43.37954-0.564071 53.589721 2.820354zM399.491907 493.684741c25.911316 15.306785 23.729909 59.644746-5.640708 69.103165-21.661317 6.975509-79.537975 1.409678-108.571148 1.409678-27.904033 0-53.270247-1.822997-57.82075-29.615214-4.249001-26.023131 14.027892-40.483311 29.616212-43.699014 17.957418-3.722867 49.170999-1.410676 71.923519-1.410676 19.423004 0 54.265607-5.358173 70.492875 4.212061z" p-id="10338"></path></svg>