<?xml version="1.0" standalone="no"?><!DOCTYPE svg PUBLIC "-//W3C//DTD SVG 1.1//EN" "http://www.w3.org/Graphics/SVG/1.1/DTD/svg11.dtd"><svg t="1741067969078" class="icon" viewBox="0 0 1024 1024" version="1.1" xmlns="http://www.w3.org/2000/svg" p-id="1760" xmlns:xlink="http://www.w3.org/1999/xlink" width="200" height="200"><path d="M800 64a160 160 0 0 1 159.68 149.504L960 224v576a160 160 0 0 1-149.504 159.68L800 960h-576a160 160 0 0 1-159.68-149.504L64 800V576a32 32 0 0 1 63.488-5.76L128 576v224a96 96 0 0 0 86.784 95.552L224 896h576a96 96 0 0 0 95.552-86.784L896 800v-576a96 96 0 0 0-86.784-95.552L800 128H448l-6.72-0.576c-33.728-5.952-33.728-56.896 0-62.848L448 64h352z m-704 32c90.56 19.136 161.472 56.64 212.608 112.448 51.2 55.872 86.976 112.192 107.392 168.96h114.752a32 32 0 0 1 22.592 54.592L374.656 610.752a32 32 0 0 1-45.312 0L150.656 432a32 32 0 0 1 22.592-54.592H288c-16.768-69.44-38.08-125.76-64-168.96-25.92-43.136-68.544-80.64-128-112.448z" fill="#666666" p-id="1761"></path></svg>